<?xml version="1.0" encoding="utf-8"?>
<!-- Generator: Adobe Illustrator 17.1.0, SVG Export Plug-In . SVG Version: 6.00 Build 0)  -->
<!DOCTYPE svg PUBLIC "-//W3C//DTD SVG 1.1//EN" "http://www.w3.org/Graphics/SVG/1.1/DTD/svg11.dtd">
<svg version="1.1" id="Layer_1" xmlns="http://www.w3.org/2000/svg" xmlns:xlink="http://www.w3.org/1999/xlink" x="0px" y="0px"
	 width="200px" height="200px" viewBox="0 0 200 200" enable-background="new 0 0 200 200" xml:space="preserve">
<path fill="#AECA0B" d="M169.4,74.9c-0.6,16.6-5.5,31.8-13,46.5c-12.2,24-27.2,46-44.9,66c-8.9,10.1-13.8,10.3-22.5,0.3
	c-21.7-25-40.9-51.5-52.4-82.7c-10.4-28.1-8-54.1,12.4-77.4C79.1-6.8,137-0.9,159.6,38.7C165.9,50,170,61.8,169.4,74.9z M136.7,74.3
	c-0.1-20.3-16.7-37-36.8-36.7c-20.4,0.3-36.8,16.8-36.7,37c0.1,20.4,16.4,36.5,37,36.5S136.8,94.9,136.7,74.3z"/>
</svg>
